<svg xmlns="http://www.w3.org/2000/svg" width="1024" viewBox="0 0 768 768" height="1024" version="1.0"><defs><clipPath id="a"><path d="M144.82 91h478.5v587.457h-478.5zm0 0"/></clipPath></defs><g clip-path="url(#a)"><path fill="#fff" d="M595.277 91.645c-1.507.253-2.761.511-2.824.574-.062.035 1.027.195 2.375.289 6.735.547 13.149 3.625 16.195 7.793 3.145 4.265 4.457 8.758 4.457 15.14 0 9.848-3.91 21.618-11.32 33.836-2.117 3.496-6.031 9.301-6.191 9.141-.063-.063-.254-2.98-.45-6.512-1.152-20.011-2.597-36.176-3.91-43.648-1.992-11.227-5.23-14.336-10.265-9.817-2.375 2.118-2.79 2.567-6.352 7.282-3.012 4.043-5.129 7.09-13.726 19.726-10.618 15.649-21.266 29.86-30.02 39.992-1.414 1.637-2.664 2.985-2.758 2.985-.097 0-.61-1.09-1.093-2.406-.93-2.438-2.243-4.008-3.461-4.008-.836 0-3.047 2.05-3.946 3.656-.418.738-2.886 5.293-5.484 10.133-9.719 18.027-9.688 17.996-11.805 20.11-1.058 1.093-1.988 1.956-2.05 1.894-.036-.032.703-1.989 1.667-4.332 4.586-11.094 6.895-21.262 6.895-30.274-.031-9.336-1.895-23.672-4.297-33.164-2.726-10.648-6.32-14.113-9.3-8.98-.45.738-3.692 7.984-7.188 16.101-21.262 49.07-28 62.477-41.278 82.266-10.328 15.394-13.086 18.86-25.53 32.074-22.388 23.828-34.415 37.524-41.505 47.371-8.433 11.707-11.383 16.453-16.644 26.844-6.125 12.187-12.188 28.738-18.348 50.324-2.117 7.406-2.918 9.621-3.367 9.332-.129-.066-1.313-2.117-2.567-4.555-5.835-11.066-11.96-20.656-16.421-25.753-10.04-11.485-23.22-15.332-38.133-11.164-8.531 2.375-14.945 6.19-22.387 13.343-5.52 5.262-8.566 9.688-10.457 15.14-.64 1.829-1.187 2.532-5.195 6.735-2.438 2.567-5.551 5.578-6.864 6.672l-2.375 1.953-.996-.77a56.576 56.576 0 0 0-2.66-1.859c-6.125-4.039-12.414-11.289-16.004-18.41-2.086-4.168-4.234-11.16-4.203-13.789l.031-.867.707.96c3.528 4.782 9.653 6.032 17.223 3.435 5.934-2.02 10.36-4.875 14.145-9.11 5.84-6.512 9.879-12.348 13.375-19.34 2.308-4.617 4.652-10.101 4.425-10.36-.093-.065-1.058.419-2.18 1.06-3.976 2.34-12.991 6.863-16.132 8.113-3.945 1.57-6.48 2.117-13.473 2.953-6.316.77-8.5 1.25-10.808 2.437-2.309 1.153-3.946 2.438-6.094 4.747l-1.828 1.957-.031-1.22c0-2.245-.997-6.128-2.309-9.046-3.016-6.766-7.219-11.387-15.332-16.836l-2.05-1.414 1.632-.352c3.625-.832 8.469-5.324 10.68-9.91 2.023-4.172 3.593-11.289 4.011-18.09.223-3.336-.066-8.722-.449-8.722-.097 0-.898 1.058-1.797 2.308-2.695 3.88-6.351 8.34-8.21 10.008-.962.863-3.786 2.918-6.286 4.555-4.746 3.078-5.965 4.297-7.219 7.183-1.183 2.692-1.347 4.426-.64 6.512.32.992.547 1.828.449 1.828-.48 0-9.27-5.773-12.379-8.148-2.473-1.86-7.312-6.125-7.473-6.543-.066-.13.543-.223 1.313-.223 2.246 0 3.914-1.379 5.484-4.492l1.286-2.566v-4.168c0-2.954-.196-4.942-.61-6.735-.738-3.207-2.117-7.027-2.437-6.672-.098.13-.578 1.41-1.028 2.856-1.285 3.941-2.664 6.605-4.875 9.332-2.468 3.078-2.789 3.656-3.238 5.836l-.355 1.765-1.024-1.476c-2.535-3.656-4.363-8.242-5.809-14.367-.289-1.317-.32-1.188-.19 1.12.386 6.575 2.917 12.317 9.108 20.72.418.578.352.609-1.058.609-1.059 0-2.567.45-5.356 1.637-3.046 1.28-4.46 1.668-6.64 1.925-1.54.16-3.785.414-5.004.543l-2.18.227 2.246 1.539c5.164 3.527 10.551 5.547 14.657 5.484 4.617-.066 8.02-2.054 8.402-4.906.098-.707.289-1.316.387-1.316.129 0 1.027.707 1.988 1.539 2.406 2.148 9.75 7.344 15.683 11.129 6.864 4.332 6.641 4.074 3.848 4.523-2.918.512-4.969 1.54-8.176 4.137-6.062 4.937-8.629 6.156-20.625 9.847-.609.192-.96.45-.8.575.351.355 5.835 2.343 8.593 3.144 5.645 1.668 13.086 2.504 17.543 1.988 8.309-.96 14.371-5.742 14.371-11.386v-1.922l.801.96c2.953 3.497 5.516 8.372 6.574 12.509.578 2.148.739 4.136.965 12.027.16 5.195.383 9.879.512 10.39l.226.934-1.125-.836c-.609-.48-1.89-1.218-2.886-1.636-5.293-2.34-9.235-2.372-17.031-.063-9.461 2.79-9.88 2.856-17.223 2.856-3.945 0-8.79-.227-12.125-.547-3.047-.32-5.61-.512-5.707-.418-.258.257 6.543 6.543 9.972 9.238a81.764 81.764 0 0 0 14.82 9.27c7.923 3.878 11.161 4.683 18.024 4.394 4.653-.195 7.153-.707 9.75-2.023 3.496-1.73 5.422-3.942 6.32-7.278l.547-1.988.895 1.762c4.043 8.02 7.73 12.476 16.008 19.246l2.5 2.05-1.121.997c-.61.511-3.305 2.82-5.97 5.097-6.124 5.227-6.507 6.192-2.562 6.032 1.954-.098 11.223-2.309 14.848-3.563 1.059-.383 2.149-.672 2.438-.672 1.25 0 6.543 7.442 8.34 11.77 2.824 6.703 3.464 13.215 2.054 20.625-.676 3.656-1.894 6.925-4.172 11.418-2.148 4.297-2.246 4.777-1.027 6.093 2.152 2.372 9.945 1.668 12.766-1.156 1.636-1.637 1.765-2.535 1.765-11.867-.031-8.145-.48-12.445-1.926-18.121-1.699-6.766-5.613-14.817-9.558-19.79-.543-.671-.895-1.28-.832-1.347.062-.062 1.797-.64 3.816-1.312 2.02-.676 3.848-1.285 4.043-1.348.192-.066 1.7.93 3.367 2.18 6.477 5.004 10.52 8.758 13.727 12.797 3.496 4.425 4.683 6.511 6.156 10.808 1.156 3.336 1.637 6.063 2.695 15.492 1.7 15.235 4.235 25.532 8.211 33.387 9.75 19.246 25.274 33.645 53.82 49.969 14.817 8.5 34.223 14.5 54.395 16.87 10.649 1.22 20.785 4.556 29.832 9.782 14.785 8.5 25.563 21.617 37.684 45.867 10.168 20.332 14.594 34.254 22.933 72.325 2.438 11.129 2.727 11.836 5.454 13.18 1.601.769 2.05.835 4.007.675 6.575-.547 17.543-6.383 28.641-15.266 1.188-.933 2.246-1.636 2.375-1.543.258.29-1.121 3.657-2.309 5.52-2.086 3.3-6.77 6.348-10.39 6.797-2.985.355-1.317.867 2.758.867 3.238 0 4.105-.129 6.093-.832 4.137-1.477 6.766-3.98 8.723-8.34 1.059-2.308 1.957-6.222 1.957-8.469v-1.507l5.356-5.164c2.917-2.852 6.992-6.957 9.011-9.172 2.024-2.211 3.817-4.075 3.98-4.106.446-.191.286 5.422-.257 7.602-1.09 4.394-3.883 8.05-7.668 9.941-1.922.996-1.922.996-.8.996 1.507 0 4.554-.8 6.573-1.734 3.496-1.602 6.578-5.45 7.57-9.492.579-2.34.516-7.922-.128-10.871l-.512-2.344 4.234-4.875c4.715-5.418 6.028-6.992 8.66-10.39 1.829-2.34 1.829-2.376 2.149-1.509.64 1.735.738 5.965.16 8.149-.77 3.012-1.605 4.426-3.914 6.668-1.121 1.125-1.89 2.023-1.7 2.023.77 0 4.747-2.023 6.255-3.207 2.117-1.636 3.465-3.527 4.332-6.129.992-2.918.77-7.023-.578-11l-.996-2.82 1.539-2.312c5.07-7.504 9.207-15.97 10.425-21.293.579-2.598.672-6.063.16-7.86-.417-1.476-1.925-3.27-3.464-4.043-.64-.32-3.305-1.058-5.965-1.633-26.684-5.71-40.797-11.164-54.559-21.039-4.808-3.433-17.125-13.054-22.449-17.449-10.488-8.691-17.098-16.195-32.621-36.883-9.14-12.187-15.617-20.558-19.148-24.73-1.055-1.281-1.922-2.406-1.922-2.531 0-.13 1.41-.387 3.14-.61 9.207-1.187 18.477-5.101 29.575-12.543l3.687-2.469 4.813-.19c14.687-.579 25.144-5.036 28.578-12.188 1.89-3.977 1.761-7.762-.418-12.508-.64-1.348-1.22-2.438-1.285-2.375-.063.062.035 1.058.195 2.18 1.312 9.46-6.223 16.55-20.785 19.535-3.399.671-4.524.8-4.489.382 0-.128 1.122-1.156 2.47-2.277 8.273-6.8 16.515-15.683 28.35-30.469l2.665-3.304 4.168-1.059c11.77-2.98 19.18-8.016 21.52-14.656.706-2.02.644-5.836-.16-8.18-.575-1.7-3.43-6.414-3.72-6.125-.062.067.192.961.547 2.02.512 1.543.61 2.437.48 4.554-.386 6.739-5.679 12.348-15.269 16.262-2.562 1.027-3.172 1.09-2.562.227 2.66-3.754 8.402-12.254 10.422-15.43 1.378-2.211 2.597-4.07 2.726-4.168.418-.352 4.813-7.89 7.86-13.473 2.148-3.976 3.496-6.058 4.007-6.316.418-.227 2.758-1.348 5.227-2.504 9.367-4.39 15.172-9.492 17.547-15.395.64-1.57.77-2.5.77-5.128 0-3.016-.067-3.336-1.157-5.614-1.027-2.117-4.617-6.672-5.004-6.32-.062.066.258.867.707 1.734 1.09 2.243 1.54 4.586 1.38 7.473-.29 5.227-4.298 10.902-10.84 15.457-2.634 1.828-5.134 3.242-5.325 3.047-.098-.094.898-2.438 2.21-5.227 5.102-10.84 11.13-26.043 14.852-37.43l1.57-4.777 4.493-2.984c7.117-4.746 11.996-9.074 15.684-13.953 7.086-9.395 7.535-18.567 1.28-25.305-1.667-1.793-6.155-5.164-6.925-5.164-.16 0 .352.738 1.184 1.668 2.761 3.082 4.332 7.121 4.332 11.164 0 4.746-1.668 9.203-5.453 14.496-2.63 3.688-11.16 11.961-11.77 11.387-.098-.129.414-2.344 1.152-4.942 4.426-15.972 8.82-38.519 10.649-54.78l.418-3.528 3.719-3.848c13.984-14.496 20.816-27.777 20.113-39.129-.356-6.093-3.336-10.777-8.727-13.793-2.05-1.152-6.156-2.53-8.5-2.851l-1.441-.227 1.926 1.059c2.98 1.637 6.574 5.387 7.953 8.273 1.539 3.274 1.957 5.68 1.73 9.88-.48 8.37-5.195 18.44-13.469 28.866-1.027 1.282-1.957 2.309-2.023 2.211-.062-.062.164-3.718.516-8.113 1.09-13.953 1.379-21.648 1.41-38.902l.031-16.778 2.086-2.437c10.52-12.281 18.09-25.688 21.266-37.653 1.28-4.714 1.636-7.472 1.601-12.124-.062-5.067-.703-8.083-2.5-11.512-4.137-7.89-14.047-11.707-25.465-9.781zm0 0"/></g></svg>